<?xml version="1.0" standalone="no"?>
<!DOCTYPE svg PUBLIC "-//W3C//DTD SVG 20010904//EN"
 "http://www.w3.org/TR/2001/REC-SVG-20010904/DTD/svg10.dtd">
<svg version="1.0" xmlns="http://www.w3.org/2000/svg"
 width="70.000000pt" height="70.000000pt" viewBox="0 0 70.000000 70.000000"
 preserveAspectRatio="xMidYMid meet">
<metadata>
Created by potrace 1.11, written by Peter Selinger 2001-2013
</metadata>
<g transform="translate(0.000000,70.000000) scale(0.100000,-0.100000)"
fill="#000000" stroke="none">
<path d="M325 680 c-93 -19 -125 -49 -111 -106 l7 -28 12 25 c7 13 28 32 47
41 62 30 167 29 111 -2 -12 -6 -26 -20 -32 -32 -11 -21 -10 -21 44 -15 l55 5
-8 -35 c-9 -39 -50 -87 -95 -111 -58 -30 -213 -79 -227 -71 -22 12 -67 19 -84
12 -12 -4 -9 -12 15 -37 35 -36 67 -105 76 -161 4 -22 8 -49 10 -60 2 -11 4
-35 4 -52 1 -28 5 -33 25 -33 18 0 27 9 39 38 41 100 128 182 194 182 47 0 87
-42 108 -113 16 -54 17 -56 41 -45 26 12 26 12 27 183 1 89 -8 208 -19 251 -5
19 -1 22 30 26 28 3 37 0 42 -14 3 -10 10 -18 16 -18 6 0 9 3 5 6 -3 3 0 26 8
50 l13 43 -42 20 c-86 41 -236 65 -311 51z"/>
</g>
</svg>
